<svg width="24" height="25" viewBox="0 0 24 25" fill="none" xmlns="http://www.w3.org/2000/svg">
<path d="M20.52 6.97399C20.1 6.41799 19.428 6.07199 18.52 5.94399L9.678 4.70399C8.769 4.57699 8.032 4.72399 7.478 5.14099C6.922 5.55999 6.575 6.23199 6.448 7.13899L6.325 8.00599H5.86C4.016 8.00599 3 9.02199 3 10.867V18.124C3 19.969 4.016 20.984 5.86 20.984H14.792C16.391 20.984 17.364 20.219 17.597 18.816C18.902 18.711 19.734 17.864 19.951 16.357L20.954 9.17399C21.084 8.26899 20.937 7.52899 20.519 6.97399H20.52ZM5.86 9.26199H14.792C15.932 9.26199 16.398 9.72699 16.398 10.867V15.12L13.532 12.254C13.2739 11.9965 12.9241 11.8519 12.5595 11.8519C12.1949 11.8519 11.8451 11.9965 11.587 12.254L8.094 15.748L7.578 15.231C7.31999 14.9732 6.9702 14.8284 6.6055 14.8284C6.2408 14.8284 5.89101 14.9732 5.633 15.231L4.256 16.61V10.868C4.256 9.72799 4.721 9.26299 5.861 9.26299L5.86 9.26199ZM14.792 19.729H5.861C4.809 19.729 4.337 19.326 4.269 18.37L6.521 16.119C6.54384 16.0974 6.57407 16.0854 6.6055 16.0854C6.63693 16.0854 6.66716 16.0974 6.69 16.119L7.39 16.819C7.57693 17.0057 7.83032 17.1105 8.0945 17.1105C8.35868 17.1105 8.61207 17.0057 8.799 16.819L12.476 13.142C12.4988 13.1204 12.5291 13.1084 12.5605 13.1084C12.5919 13.1084 12.6222 13.1204 12.645 13.142L16.398 16.895V18.124C16.398 19.264 15.933 19.729 14.792 19.729ZM19.712 8.99899L18.707 16.182C18.586 17.024 18.267 17.448 17.654 17.552V10.867C17.654 9.02199 16.638 8.00699 14.792 8.00699H7.592L7.69 7.31499C7.77 6.74999 7.952 6.35499 8.233 6.14399C8.511 5.93399 8.938 5.86699 9.502 5.94799L18.345 7.18799C18.911 7.26799 19.305 7.44899 19.515 7.72899C19.726 8.00799 19.792 8.43499 19.712 8.99899ZM6.572 12.403C6.572 11.941 6.943 11.566 7.405 11.566H7.411C7.57646 11.5664 7.73809 11.6158 7.87547 11.708C8.01285 11.8002 8.11982 11.9311 8.18286 12.0841C8.2459 12.237 8.26219 12.4053 8.22967 12.5675C8.19715 12.7297 8.11728 12.8787 8.00014 12.9955C7.88301 13.1124 7.73386 13.1919 7.57156 13.224C7.40925 13.2562 7.24106 13.2395 7.08823 13.1761C6.93541 13.1127 6.8048 13.0054 6.71292 12.8678C6.62104 12.7302 6.572 12.5684 6.572 12.403Z" fill="black"/>
</svg>
