<svg xmlns:xlink="http://www.w3.org/1999/xlink" viewBox="0 0 40 40" fill="none" xmlns="http://www.w3.org/2000/svg" width="40"  height="40" ><path d="M12.3 8.60059C8.49996 9.56725 5.66661 12.9006 5.38328 16.8506L4.59995 27.0172C4.58328 27.1839 4.64996 27.3672 4.76662 27.5006C4.88329 27.6339 5.04995 27.7006 5.24995 27.7006H8.01662" stroke="#000000" stroke-width="1.5px" stroke-linecap="round" stroke-linejoin="round" fill="none"></path><path d="M9.71753 20V30.9333V32.2167C9.71753 33.9833 11.1509 35.4167 12.9342 35.4167H20.0009" stroke="#000000" stroke-width="1.5px" stroke-linecap="round" stroke-linejoin="round" fill="none"></path><path d="M27.6998 8.60059C31.4998 9.56725 34.3332 12.9006 34.6165 16.8506L35.3998 27.0172C35.4165 27.1839 35.3498 27.3672 35.2332 27.5006C35.1165 27.6339 34.9498 27.7006 34.7498 27.7006H31.9832" stroke="#000000" stroke-width="1.5px" stroke-linecap="round" stroke-linejoin="round" fill="none"></path><path d="M27.7005 8.59968C27.8505 8.31635 28.1171 7.68301 28.0838 6.86635C28.0671 6.44968 28.0171 5.78301 27.5005 5.23301C27.2338 4.94967 26.7005 4.58301 25.7671 4.58301H20.0005H14.2338C13.3171 4.58301 12.7838 4.94967 12.5005 5.23301C12.1171 5.64967 11.9171 6.21635 11.9171 6.86635C11.9171 7.39968 12.0505 7.99968 12.3005 8.59968C13.8505 11.3997 16.8005 13.1497 20.0005 13.1497C23.2005 13.1497 26.1671 11.3997 27.7005 8.59968Z" stroke="#000000" stroke-width="1.5px" stroke-linecap="round" stroke-linejoin="round" fill="none"></path><path d="M30.2833 20V30.9333V32.2167C30.2833 33.9833 28.85 35.4167 27.0667 35.4167H20" stroke="#000000" stroke-width="1.5px" stroke-linecap="round" stroke-linejoin="round" fill="none"></path><path d="M17.4338 13.1494V16.0328" stroke="#000000" stroke-width="1.5px" stroke-linecap="round" stroke-linejoin="round" fill="none"></path><path d="M22.5662 13.1494V18.2828" stroke="#000000" stroke-width="1.5px" stroke-linecap="round" stroke-linejoin="round" fill="none"></path></svg>