<svg xmlns:xlink="http://www.w3.org/1999/xlink" width="20" height="20" viewBox="0 0 20 20" fill="none" xmlns="http://www.w3.org/2000/svg"><path d="M1.66669 6.66927C1.66669 4.82832 3.15907 3.33594 5.00002 3.33594H10.8334C12.6743 3.33594 14.1667 4.82832 14.1667 6.66927V13.3359C14.1667 15.1769 12.6743 16.6693 10.8334 16.6693H5.00002C3.15907 16.6693 1.66669 15.1769 1.66669 13.3359V6.66927Z" stroke="#000000" stroke-width="1.1px" fill="none"></path><path d="M14.1667 7.78038L15.4508 6.41067C16.4842 5.30841 18.3334 6.03968 18.3334 7.55057V12.4546C18.3334 13.9655 16.4842 14.6968 15.4508 13.5945L14.1667 12.2248V7.78038Z" stroke="#000000" stroke-width="1.1px" fill="none"></path><path d="M10.8334 8.33594C10.8334 9.25641 10.0872 10.0026 9.16669 10.0026C8.24621 10.0026 7.50002 9.25641 7.50002 8.33594C7.50002 7.41546 8.24621 6.66927 9.16669 6.66927C10.0872 6.66927 10.8334 7.41546 10.8334 8.33594Z" stroke="#000000" stroke-width="1.1px" fill="none"></path></svg>