<svg xmlns:xlink="http://www.w3.org/1999/xlink" viewBox="0 0 18 18" fill="none" xmlns="http://www.w3.org/2000/svg" width="18"  height="18" ><g id="location_on_black_24dp (1) 1" clip-path="url(#clip0_30046_8749)" fill="none"><g id="Group" fill="none"><path id="Vector" d="M9 1.5C5.85 1.5 3 3.915 3 7.65C3 10.035 4.8375 12.84 8.505 16.0725C8.79 16.32 9.2175 16.32 9.5025 16.0725C13.1625 12.84 15 10.035 15 7.65C15 3.915 12.15 1.5 9 1.5ZM9 9C8.175 9 7.5 8.325 7.5 7.5C7.5 6.675 8.175 6 9 6C9.825 6 10.5 6.675 10.5 7.5C10.5 8.325 9.825 9 9 9Z" fill="#555770"></path></g></g><defs><clipPath id="clip0_30046_8749"><rect width="18" height="18" fill="white"></rect></clipPath></defs></svg>