<svg xmlns:xlink="http://www.w3.org/1999/xlink" viewBox="0 0 40 40" fill="none" xmlns="http://www.w3.org/2000/svg" width="40"  height="40" ><path d="M7.56604 31.5958L17.5701 21.5918" stroke="#000000" stroke-width="1.7px" stroke-linecap="round" stroke-linejoin="round" fill="none"></path><path d="M29.6824 33.1036L6.05859 9.47979C12.5928 2.94554 23.1644 2.94554 29.6824 9.47979C36.2167 15.9978 36.2167 26.5694 29.6824 33.1036Z" stroke="#000000" stroke-width="1.7px" stroke-linecap="round" stroke-linejoin="round" fill="none"></path><path d="M30.1195 10.2744C30.2005 11.6526 30.2816 15.7385 27.7846 20.0353C26.3092 22.5646 24.5094 24.2185 23.1799 25.1913" stroke="#000000" stroke-width="1.7px" stroke-linecap="round" stroke-linejoin="round" fill="none"></path><path d="M28.8386 8.9936C27.4604 8.91253 23.3745 8.83145 19.0778 11.3284C16.5484 12.8039 14.8946 14.6036 13.9218 15.9332" stroke="#000000" stroke-width="1.7px" stroke-linecap="round" stroke-linejoin="round" fill="none"></path><path d="M6.05886 9.47949L4.58337 10.955" stroke="#000000" stroke-width="1.5px" stroke-linecap="round" stroke-linejoin="round" fill="none"></path><path d="M13.4359 16.8574L11.9604 18.3329" stroke="#000000" stroke-width="1.5px" stroke-linecap="round" stroke-linejoin="round" fill="none"></path><path d="M22.3046 25.7266L20.8291 27.202" stroke="#000000" stroke-width="1.5px" stroke-linecap="round" stroke-linejoin="round" fill="none"></path><path d="M29.6832 33.1035L28.2077 34.579" stroke="#000000" stroke-width="1.5px" stroke-linecap="round" stroke-linejoin="round" fill="none"></path></svg>