<svg xmlns:xlink="http://www.w3.org/1999/xlink" xmlns="http://www.w3.org/2000/svg" width="24" height="24" fill="none"><path fill="currentColor" d="M20.52 6.314c-.42-.556-1.092-.902-2-1.03l-8.842-1.24c-.909-.127-1.646.02-2.2.437-.556.419-.903 1.091-1.03 1.998l-.123.867H5.86C4.016 7.346 3 8.362 3 10.207v7.257c0 1.845 1.016 2.86 2.86 2.86h8.932c1.599 0 2.572-.765 2.805-2.168 1.305-.105 2.137-.952 2.354-2.459l1.003-7.183c.13-.905-.017-1.645-.435-2.2ZM5.86 8.602h8.932c1.14 0 1.606.465 1.606 1.605v4.253l-2.866-2.866a1.377 1.377 0 0 0-1.945 0l-3.493 3.494-.516-.517a1.376 1.376 0 0 0-1.945 0L4.256 15.95v-5.742c0-1.14.465-1.605 1.605-1.605Zm8.932 10.467H5.861c-1.052 0-1.524-.403-1.592-1.359l2.252-2.251a.123.123 0 0 1 .169 0l.7.7a.997.997 0 0 0 1.409 0l3.677-3.677a.123.123 0 0 1 .169 0l3.753 3.753v1.229c0 1.14-.465 1.605-1.606 1.605Zm4.92-10.73-1.005 7.183c-.121.842-.44 1.266-1.053 1.37v-6.685c0-1.845-1.016-2.86-2.862-2.86h-7.2l.098-.692c.08-.565.262-.96.543-1.171.278-.21.705-.277 1.269-.196l8.843 1.24c.566.08.96.261 1.17.541.211.279.276.706.196 1.27Zm-13.14 3.404c0-.462.371-.837.833-.837h.006a.837.837 0 1 1-.839.837Z"></path></svg>