<svg xmlns:xlink="http://www.w3.org/1999/xlink" viewBox="0 0 40 40" fill="none" xmlns="http://www.w3.org/2000/svg" width="40"  height="40" ><path d="M5.03131 35.0137H35.0313" stroke="#000000" stroke-width="1.5px" stroke-linecap="round" stroke-linejoin="round" fill="none"></path><path d="M26.6955 10.0225H13.3657C10.609 10.0225 8.37115 12.2591 8.37115 15.0143V34.998H31.7063V15.0305C31.6901 12.2591 29.4522 10.0225 26.6955 10.0225Z" stroke="#000000" stroke-width="1.5px" stroke-linecap="round" stroke-linejoin="round" fill="none"></path><path d="M20.0304 28.3525C18.1817 28.3525 16.6898 29.8436 16.6898 31.6913V34.6734C16.6898 34.8679 16.852 35.03 17.0466 35.03H23.0141C23.2087 35.03 23.3709 34.8679 23.3709 34.6734V31.6913C23.3709 29.8436 21.879 28.3525 20.0304 28.3525Z" stroke="#000000" stroke-width="1.5px" stroke-linecap="round" stroke-linejoin="round" fill="none"></path><path d="M25.0431 15.0312H23.3728V16.6989H25.0431V15.0312Z" stroke="#000000" stroke-width="1.5px" stroke-linecap="round" stroke-linejoin="round" fill="none"></path><path d="M16.7065 15.0312H15.0362V16.6989H16.7065V15.0312Z" stroke="#000000" stroke-width="1.5px" stroke-linecap="round" stroke-linejoin="round" fill="none"></path><path d="M25.0431 22.5176H23.3728V24.1853H25.0431V22.5176Z" stroke="#000000" stroke-width="1.5px" stroke-linecap="round" stroke-linejoin="round" fill="none"></path><path d="M16.7065 22.5176H15.0362V24.1853H16.7065V22.5176Z" stroke="#000000" stroke-width="1.5px" stroke-linecap="round" stroke-linejoin="round" fill="none"></path><path d="M25.0244 5.03027H15.019C13.1704 5.03027 11.6785 6.52135 11.6785 8.36899V10.0383H28.3487V8.36899C28.365 6.52135 26.8731 5.03027 25.0244 5.03027Z" stroke="#000000" stroke-width="1.5px" stroke-linecap="round" stroke-linejoin="round" fill="none"></path></svg>