<svg xmlns:xlink="http://www.w3.org/1999/xlink" viewBox="0 0 40 40" fill="none" xmlns="http://www.w3.org/2000/svg" width="40"  height="40" ><path d="M31.8421 13.1002V12.2393C31.8421 10.0861 30.0705 8.33301 27.8947 8.33301H12.1053C9.92947 8.33301 8.15789 10.0861 8.15789 12.2393V13.1002C6.35789 13.4627 5 15.0408 5 16.9268V24.7393C5 28.3174 6.91053 30.208 10.5263 30.208H12.8947V32.5518C12.8947 32.983 13.2484 33.333 13.6842 33.333C14.12 33.333 14.4737 32.983 14.4737 32.5518V30.208H25.5263V32.5518C25.5263 32.983 25.88 33.333 26.3158 33.333C26.7516 33.333 27.1053 32.983 27.1053 32.5518V30.208H29.4737C33.0895 30.208 35 28.3174 35 24.7393V16.9268C35 15.0408 33.6421 13.4627 31.8421 13.1002ZM12.1053 9.89551H27.8947C29.2005 9.89551 30.2632 10.9471 30.2632 12.2393V13.1002C28.4632 13.4627 27.1053 15.0408 27.1053 16.9268V22.3955H12.8947V16.9268C12.8947 15.0408 11.5368 13.4627 9.73684 13.1002V12.2393C9.73684 10.9471 10.7995 9.89551 12.1053 9.89551ZM33.4211 24.7393C33.4211 27.4408 32.2037 28.6455 29.4737 28.6455H10.5263C7.79632 28.6455 6.57895 27.4408 6.57895 24.7393V16.9268C6.57895 15.6346 7.64158 14.583 8.94737 14.583C10.2532 14.583 11.3158 15.6346 11.3158 16.9268V23.1768C11.3158 23.608 11.6695 23.958 12.1053 23.958H27.8947C28.3305 23.958 28.6842 23.608 28.6842 23.1768V16.9268C28.6842 15.6346 29.7468 14.583 31.0526 14.583C32.3584 14.583 33.4211 15.6346 33.4211 16.9268V24.7393Z" fill="currentColor"></path></svg>