<svg xmlns:xlink="http://www.w3.org/1999/xlink" xmlns="http://www.w3.org/2000/svg" width="24" height="24" fill="none"><path fill="#8F90A6" d="m10.84 20.1-1.35-1.325a62.416 62.416 0 0 1-4.512-4.763C3.66 12.454 3 10.783 3 9c0-1.417.454-2.604 1.362-3.563C5.27 4.479 6.395 4 7.737 4c.758 0 1.512.187 2.262.562.75.375 1.417.98 2.001 1.813.584-.833 1.252-1.438 2.002-1.813.75-.375 1.503-.562 2.261-.562 1.342 0 2.467.479 3.375 1.437C20.546 6.396 21 7.583 21 9c0 1.8-.671 3.487-2.013 5.062a63.69 63.69 0 0 1-4.5 4.738l-1.326 1.275c-.332.333-.719.5-1.161.5-.442 0-.829-.158-1.16-.475Z"></path></svg>