<svg xmlns:xlink="http://www.w3.org/1999/xlink" viewBox="0 0 24 24" fill="none" xmlns="http://www.w3.org/2000/svg" width="24"  height="24" ><g id="2 Speech Bubbles (Chat)" fill="none"><g id="Group" fill="none"><path id="Vector" d="M9.94 20.7499C8.76 20.7499 7.62 20.4999 6.55 19.9999L2.89 20.5299C2.65 20.5699 2.42 20.4799 2.25 20.3199C2.08 20.1499 1.99999 19.9099 2.03999 19.6799L2.60001 15.9699C2.20001 15.0099 2 14.0099 2 12.9999C2 10.9799 2.79 9.05994 4.23 7.60994C4.52 7.30994 4.99999 7.31994 5.28999 7.60994C5.57999 7.89994 5.58999 8.37994 5.28999 8.66994C4.12999 9.83994 3.49001 11.3699 3.49001 12.9999C3.49001 13.8699 3.68 14.7399 4.06 15.5699C4.14 15.7399 4.15 15.9299 4.09 16.1099L3.67 18.9099L6.56 18.4899C6.71 18.4699 6.86 18.4899 7 18.5599C8.12 19.1199 9.37 19.3399 10.58 19.2199C10.98 19.1699 11.36 19.4799 11.4 19.8899C11.44 20.2999 11.14 20.6699 10.73 20.7099C10.48 20.7399 10.21 20.7499 9.94 20.7499Z" fill="#8F90A6"></path></g><path id="Vector_2" d="M22.0101 11C22.0101 6.73 18.4401 3.25 14.0601 3.25C11.9101 3.25 9.91011 4.07 8.43011 5.54C6.94011 7.01 6.12012 8.94 6.12012 11C6.12012 15.27 9.68012 18.75 14.0601 18.75C14.4601 18.75 14.8401 18.72 15.1601 18.67C15.1701 18.67 15.1901 18.67 15.2001 18.66C15.9901 18.55 16.7401 18.33 17.4501 18L21.1101 18.53C21.3501 18.57 21.5801 18.49 21.7501 18.32C21.9101 18.15 21.9901 17.91 21.9601 17.68L21.4001 13.96C21.8001 13.01 22.0101 12.01 22.0101 11ZM11.6101 11.25C11.5101 11.56 11.2101 11.78 10.8601 11.78C10.4201 11.78 10.0601 11.43 10.0601 11C10.0601 10.57 10.4201 10.22 10.8601 10.22C10.9501 10.22 11.0301 10.23 11.1101 10.26C11.4301 10.36 11.6601 10.66 11.6601 11C11.6601 11.09 11.6401 11.17 11.6101 11.25ZM14.0601 11.78C13.6201 11.78 13.2601 11.43 13.2601 11C13.2601 10.57 13.6201 10.22 14.0601 10.22C14.5001 10.22 14.8601 10.57 14.8601 11C14.8601 11.43 14.5001 11.78 14.0601 11.78ZM17.2601 11.78C16.8201 11.78 16.4601 11.43 16.4601 11C16.4601 10.57 16.8201 10.22 17.2601 10.22C17.7001 10.22 18.0601 10.57 18.0601 11C18.0601 11.43 17.7001 11.78 17.2601 11.78Z" fill="#8F90A6"></path></g></svg>