<svg xmlns:xlink="http://www.w3.org/1999/xlink" viewBox="0 0 40 40" fill="none" xmlns="http://www.w3.org/2000/svg" width="40"  height="40" ><path d="M33.0334 17.7L32.8 15.8333H35C35.4667 15.8333 35.8334 15.4667 35.8334 15C35.8334 14.5333 35.4667 14.1667 35 14.1667H32.5834L32.35 12.3833C31.95 9.98333 31.55 7.5 26.6 7.5H13.4C8.45002 7.5 8.03336 9.98333 7.63336 12.4167L7.41668 14.1667H5.00002C4.53335 14.1667 4.16669 14.5333 4.16669 15C4.16669 15.4667 4.53335 15.8333 5.00002 15.8333H7.20002L6.96669 17.7C6.08335 17.95 5.48336 18.4 5.13336 18.8C4.38336 19.65 4.05002 20.8667 4.21668 22.1833L4.86668 27.3833C5.11668 29.3833 5.78335 31.6 8.33335 32.2667V34.9833C8.33335 35.45 8.70002 35.8167 9.16669 35.8167C9.63335 35.8167 10 35.45 10 34.9833V32.4833H30V34.9833C30 35.45 30.3667 35.8167 30.8334 35.8167C31.3 35.8167 31.6667 35.45 31.6667 34.9833V32.2667C34.2334 31.6 34.8834 29.3667 35.1334 27.3833L35.7834 22.1833C35.95 20.8667 35.6167 19.65 34.8667 18.8C34.5 18.4 33.9167 17.95 33.0334 17.7ZM9.28335 12.65C9.68335 10.25 9.86669 9.16667 13.4 9.16667H26.6C30.1334 9.16667 30.3167 10.2667 30.7 12.6167L31.3167 17.5H8.65002L9.26668 12.65H9.28335ZM34.1333 21.9667L33.4833 27.1667C33.15 29.8667 32.2334 30.8167 30 30.8167H10C7.76669 30.8167 6.85003 29.8667 6.51669 27.1667L5.86668 21.9667C5.76668 21.1167 5.95002 20.3833 6.38336 19.8833C6.81669 19.4 7.48336 19.15 8.35002 19.15H31.6667C32.5334 19.15 33.2 19.4 33.6333 19.8833C34.0667 20.3833 34.25 21.1167 34.15 21.9667H34.1333ZM30.05 24.1C30.2834 24.3333 30.4167 24.65 30.4167 24.9833C30.4167 25.15 30.3834 25.3167 30.3167 25.4667C30.25 25.6167 30.1667 25.75 30.05 25.8667C29.8167 26.1 29.5 26.2333 29.1667 26.2333C28.8334 26.2333 28.5167 26.1 28.2834 25.8667C28.1667 25.75 28.0833 25.6167 28.0167 25.4667C27.95 25.3167 27.9167 25.15 27.9167 24.9833C27.9167 24.65 28.05 24.3333 28.2834 24.1C28.75 23.6333 29.5834 23.6333 30.05 24.1ZM11.7167 24.1C11.95 24.3333 12.0834 24.65 12.0834 24.9833C12.0834 25.15 12.05 25.3 11.9834 25.4667C11.9167 25.6167 11.8334 25.75 11.7167 25.8667C11.6 25.9833 11.4667 26.0667 11.3167 26.1333C11.1667 26.2 11 26.2333 10.8334 26.2333C10.5 26.2333 10.1834 26.1 9.95002 25.8667C9.83336 25.75 9.75002 25.6167 9.68335 25.4667C9.61668 25.3 9.58335 25.15 9.58335 24.9833C9.58335 24.8167 9.61668 24.65 9.68335 24.5C9.75002 24.35 9.83336 24.2167 9.95002 24.1C10.0667 23.9833 10.2 23.9 10.35 23.8333C10.6667 23.7 11 23.7 11.3167 23.8333C11.4667 23.8833 11.6 23.9833 11.7167 24.1ZM25 24.9833C25 25.45 24.6334 25.8167 24.1667 25.8167H15.8334C15.3667 25.8167 15 25.45 15 24.9833C15 24.5167 15.3667 24.15 15.8334 24.15H24.1667C24.6334 24.15 25 24.5167 25 24.9833Z" fill="currentColor"></path></svg>