<svg xmlns:xlink="http://www.w3.org/1999/xlink" viewBox="0 0 40 40" fill="none" xmlns="http://www.w3.org/2000/svg" width="40"  height="40" ><path d="M14 11V9.5C14 7.01472 16.0147 5 18.5 5H21.5C23.9853 5 26 7.01472 26 9.5V11M5 17.5212C5 17.5212 9.67706 20.6367 16.9665 21.3663M35 17.5212C35 17.5212 30.3229 20.6367 23.0335 21.3663M11 35H29C32.3137 35 35 32.3137 35 29V17C35 13.6863 32.3137 11 29 11H11C7.68629 11 5 13.6863 5 17V29C5 32.3137 7.68629 35 11 35Z" stroke="#000000" stroke-width="1.5px" stroke-linecap="round" fill="none"></path><path d="M23.3334 20.2663V21.9329C23.3334 21.9496 23.3334 21.9496 23.3334 21.9663C23.3334 23.7829 23.3167 25.2663 20 25.2663C16.7 25.2663 16.6667 23.7996 16.6667 21.9829V20.2663C16.6667 18.5996 16.6667 18.5996 18.3334 18.5996H21.6667C23.3334 18.5996 23.3334 18.5996 23.3334 20.2663Z" stroke="#000000" stroke-width="1.5px" stroke-miterlimit="10" stroke-linecap="round" stroke-linejoin="round" fill="none"></path></svg>